<svg xmlns="http://www.w3.org/2000/svg" width="1000" height="1000" viewBox="0 0 1000 1000" version="1.1"><path d="M 491.500 52.894 C 489.850 53.932, 485.566 57.418, 481.980 60.641 C 478.395 63.863, 470.745 70.530, 464.980 75.455 C 459.216 80.380, 453.565 85.330, 452.422 86.455 C 451.279 87.580, 447.925 90.525, 444.969 93 C 435.903 100.590, 424.730 110.249, 420 114.585 C 417.525 116.854, 407.175 125.843, 397 134.561 C 375.536 152.952, 354.702 170.952, 337 186.399 C 330.125 192.398, 321.846 199.600, 318.603 202.403 C 315.360 205.206, 310.635 209.366, 308.103 211.646 C 305.571 213.926, 301.179 217.751, 298.343 220.146 C 282.684 233.366, 193.767 310.539, 181.500 321.557 C 177.650 325.015, 173.150 328.882, 171.500 330.150 C 168.732 332.277, 162.204 338.054, 157.826 342.250 C 155.753 344.237, 155.404 349.004, 157.200 350.800 C 158.083 351.683, 166.867 352, 190.500 352 C 214.133 352, 222.917 352.317, 223.800 353.200 C 225.661 355.061, 225.521 478.323, 223.656 479.870 C 222.917 480.484, 216.279 481.677, 208.906 482.521 C 190.454 484.635, 185.055 485.650, 173.500 489.179 C 146.561 497.405, 137.254 508.611, 149.289 518.331 C 152.670 521.062, 226.735 562, 228.294 562 C 228.530 562, 235.288 565.569, 243.311 569.931 C 251.333 574.292, 259.833 578.798, 262.199 579.944 C 264.564 581.090, 267.625 582.688, 269 583.497 C 272.732 585.692, 304.778 602.860, 318.500 610.015 C 325.100 613.456, 335.225 618.856, 341 622.014 C 346.775 625.172, 353.300 628.633, 355.500 629.705 C 357.700 630.778, 362.875 633.471, 367 635.691 C 375.912 640.485, 388.396 647.058, 407.500 657.011 C 415.200 661.023, 423.876 665.589, 426.781 667.157 C 429.685 668.726, 439.135 673.710, 447.781 678.234 C 456.426 682.758, 466.650 688.149, 470.500 690.215 C 477.109 693.761, 481.461 696.059, 492 701.566 C 498.953 705.199, 505.501 704.464, 514 699.095 C 515.749 697.991, 538.624 685.792, 554.500 677.497 C 560.550 674.337, 570.675 668.936, 577 665.495 C 583.325 662.055, 591.875 657.527, 596 655.434 C 600.125 653.340, 609.975 648.111, 617.888 643.813 C 625.802 639.516, 632.484 636, 632.738 636 C 632.992 636, 638.892 632.905, 645.850 629.123 C 652.807 625.341, 661.875 620.532, 666 618.438 C 670.125 616.343, 682.725 609.647, 694 603.556 C 705.275 597.466, 716.075 591.702, 718 590.748 C 719.925 589.793, 722.175 588.593, 723 588.080 C 723.825 587.567, 730.800 583.798, 738.500 579.705 C 746.200 575.611, 756.100 570.335, 760.500 567.980 C 764.900 565.625, 772.100 561.813, 776.500 559.509 C 810.547 541.679, 847.027 521.114, 850.250 517.935 C 854.561 513.682, 855.041 510.420, 852.064 505.603 C 849.647 501.692, 846.146 499.083, 837.378 494.658 C 824.735 488.276, 811.995 484.995, 790.113 482.485 C 782.750 481.640, 776.338 480.709, 775.863 480.415 C 774.435 479.533, 774.766 354.634, 776.200 353.200 C 777.080 352.320, 785.456 352, 807.653 352 C 828.643 352, 838.693 351.641, 840.477 350.829 C 843.558 349.425, 844.765 345.628, 842.862 343.329 C 842.113 342.425, 831.600 333.145, 819.500 322.708 C 807.400 312.270, 797.050 303.212, 796.500 302.577 C 795.950 301.942, 788.525 295.381, 780 287.995 C 771.475 280.610, 757.546 268.477, 749.048 261.034 C 721.704 237.086, 695.056 213.928, 672 194.078 C 659.625 183.423, 648.825 173.964, 648 173.058 C 647.175 172.152, 641.297 166.930, 634.938 161.455 C 628.579 155.980, 613.335 142.725, 601.061 132 C 574.628 108.902, 569.113 104.116, 562.598 98.629 C 559.902 96.358, 556.833 93.681, 555.779 92.680 C 554.099 91.087, 546.980 84.871, 515.255 57.297 L 508.010 51 501.255 51.004 C 496.366 51.006, 493.671 51.529, 491.500 52.894 M 494.066 189.544 C 491.627 191.482, 486.002 196.350, 481.566 200.362 C 477.130 204.373, 463.825 216.100, 452 226.421 C 426.656 248.543, 425.219 249.799, 416.890 257.108 C 407.568 265.290, 385.439 284.504, 378.543 290.404 C 375.267 293.207, 370.092 297.768, 367.043 300.541 C 363.995 303.313, 358.125 308.459, 354 311.977 C 349.875 315.495, 344.363 320.409, 341.750 322.899 L 337 327.425 337 413.521 C 337 480.913, 337.272 499.951, 338.250 501.154 C 339.990 503.292, 344.177 505.993, 353.500 510.991 C 357.900 513.350, 361.950 515.627, 362.500 516.051 C 363.050 516.475, 366.425 518.374, 370 520.272 C 373.575 522.170, 380.217 525.809, 384.760 528.360 C 389.304 530.910, 397.179 535.213, 402.260 537.922 C 427.992 551.638, 434.500 555.166, 435.456 555.914 C 436.388 556.642, 440.526 558.878, 462.500 570.526 C 470.099 574.554, 476.806 578.221, 489.949 585.533 L 500.397 591.346 507.949 587.352 C 526.044 577.780, 652.489 508.388, 659.320 504.280 L 663.011 502.061 662.755 414.333 L 662.500 326.605 643.944 310.553 C 633.738 301.724, 618.888 288.899, 610.944 282.053 C 603 275.207, 594.475 267.719, 592 265.413 C 589.525 263.107, 579.850 254.579, 570.500 246.462 C 552.379 230.731, 543.216 222.729, 536.603 216.859 C 513.121 196.017, 501.251 186.015, 500 186.017 C 499.175 186.018, 496.505 187.605, 494.066 189.544 M 512.200 318.200 C 511.313 319.087, 511 328.462, 511 354.177 L 511 388.954 513.343 390.489 C 515.364 391.813, 520.841 391.989, 553.093 391.762 L 590.500 391.500 590.763 355.067 C 590.968 326.585, 590.750 318.459, 589.763 317.832 C 587.596 316.457, 513.592 316.808, 512.200 318.200 M 409.678 318.655 C 408.837 319.496, 408.769 388.235, 409.607 390.418 C 410.145 391.821, 414.378 392, 446.996 392 C 480.547 392, 483.966 391.846, 485.913 390.250 C 488.028 388.516, 488.045 388.185, 487.774 353.500 L 487.500 318.500 448.928 318.238 C 427.714 318.095, 410.051 318.282, 409.678 318.655 M 410.200 417.200 C 409.313 418.087, 409 427.432, 409 453.045 C 409 485.339, 409.124 487.802, 410.829 489.345 C 412.461 490.822, 416.578 490.998, 449.079 490.985 C 469.110 490.976, 486.079 490.602, 486.787 490.153 C 487.806 489.506, 488.014 481.900, 487.787 453.631 C 487.542 423.195, 487.279 417.786, 486 416.978 C 483.651 415.494, 411.695 415.705, 410.200 417.200 M 512.571 417.571 C 511.203 418.940, 511 423.633, 511 453.871 C 511 479.549, 511.313 488.913, 512.200 489.800 C 513.922 491.522, 588.078 491.522, 589.800 489.800 C 591.520 488.080, 591.520 418.920, 589.800 417.200 C 588.910 416.310, 578.994 416, 551.371 416 C 518.861 416, 513.944 416.199, 512.571 417.571 M 149.240 568.145 C 147.451 569.278, 145.791 571.171, 145.552 572.352 C 145.313 573.534, 144.838 588.735, 144.497 606.133 C 143.800 641.605, 143.820 641.738, 150.634 648.122 C 152.760 650.115, 161.025 655.202, 169 659.427 C 176.975 663.653, 184.254 667.518, 185.175 668.017 C 186.097 668.516, 190.372 670.789, 194.675 673.070 C 198.979 675.350, 206.100 679.142, 210.500 681.497 C 221.995 687.648, 234.294 694.095, 252 703.250 C 260.525 707.658, 267.950 711.600, 268.500 712.011 C 269.382 712.669, 287.556 722.277, 321 739.767 C 326.775 742.787, 335.775 747.523, 341 750.291 C 346.225 753.060, 355.225 757.824, 361 760.877 C 366.775 763.931, 374.650 768.133, 378.500 770.216 C 382.350 772.299, 386.938 774.674, 388.695 775.492 C 390.453 776.311, 396.753 779.619, 402.695 782.844 C 408.638 786.068, 419.125 791.652, 426 795.252 C 432.875 798.852, 442.100 803.717, 446.500 806.062 C 482.816 825.416, 495.027 831.280, 500 831.751 C 504.031 832.132, 506.065 831.383, 519.500 824.563 C 527.750 820.375, 537.200 815.484, 540.500 813.694 C 543.800 811.903, 553.475 806.788, 562 802.327 C 570.525 797.867, 580.875 792.428, 585 790.241 C 589.125 788.054, 597.900 783.406, 604.500 779.911 C 611.100 776.417, 619.200 772.097, 622.500 770.311 C 625.800 768.526, 629.850 766.444, 631.500 765.684 C 633.150 764.924, 642.054 760.184, 651.286 755.151 C 660.518 750.118, 668.300 746, 668.578 746 C 668.856 746, 674.353 743.139, 680.792 739.643 C 693.684 732.644, 716.864 720.398, 727 715.231 C 730.575 713.409, 734.175 711.509, 735 711.009 C 735.825 710.508, 743.250 706.541, 751.500 702.191 C 759.750 697.841, 774.375 690.083, 784 684.949 C 793.625 679.816, 804.561 674.015, 808.303 672.058 C 812.045 670.101, 817.568 667.150, 820.577 665.500 C 823.586 663.850, 829.856 660.543, 834.509 658.152 C 846.246 652.121, 850.141 649.057, 852.750 643.808 C 854.748 639.788, 855 637.772, 855 625.801 C 855 618.387, 854.700 603.365, 854.333 592.417 L 853.667 572.513 850.910 569.756 C 849.394 568.240, 847.300 567, 846.256 567 C 845.212 567, 835.165 572.008, 823.929 578.129 C 812.693 584.250, 799.675 591.233, 795 593.647 C 790.325 596.061, 785.825 598.449, 785 598.953 C 783.657 599.775, 757.995 613.523, 714.242 636.861 C 705.850 641.338, 698.780 645, 698.529 645 C 698.279 645, 693.220 647.636, 687.287 650.857 C 681.354 654.078, 670.875 659.636, 664 663.208 C 645.433 672.855, 631.094 680.414, 616 688.513 C 608.575 692.497, 597.775 698.223, 592 701.237 C 586.225 704.251, 577.675 708.746, 573 711.227 C 568.325 713.708, 559.550 718.325, 553.500 721.487 C 547.450 724.648, 541.150 728.035, 539.500 729.013 C 537.850 729.990, 528.644 734.925, 519.042 739.979 C 506.083 746.799, 500.929 749.034, 499.042 748.652 C 497.644 748.369, 489.975 744.586, 482 740.247 C 474.025 735.907, 462.100 729.519, 455.500 726.051 C 448.900 722.584, 437.814 716.654, 430.864 712.873 C 423.915 709.093, 417.987 706, 417.691 706 C 417.396 706, 409.357 701.794, 399.827 696.653 C 390.297 691.513, 372.375 681.986, 360 675.483 C 347.625 668.980, 329.745 659.461, 320.267 654.330 C 310.789 649.198, 302.798 645, 302.509 645 C 301.939 645, 285.783 636.347, 216.500 598.934 C 149.252 562.620, 154.310 564.935, 149.240 568.145 M 147.306 693.415 L 144.500 695.829 144.500 729.665 C 144.500 763.142, 144.524 763.533, 146.748 766.651 C 149.578 770.619, 156.256 775.032, 171.500 783.006 C 178.100 786.459, 191.150 793.434, 200.500 798.507 C 209.850 803.580, 221.325 809.732, 226 812.179 C 237.517 818.205, 247.605 823.633, 280.500 841.504 C 295.900 849.871, 313 859.099, 318.500 862.011 C 324 864.923, 331.685 868.994, 335.578 871.058 C 339.471 873.122, 358.086 883.194, 376.943 893.440 C 395.800 903.686, 412.640 912.757, 414.365 913.599 C 416.089 914.441, 420.200 916.666, 423.500 918.544 C 426.800 920.421, 431.075 922.746, 433 923.709 C 434.925 924.672, 448.650 932.040, 463.500 940.082 C 478.350 948.125, 492.252 955.277, 494.394 955.977 C 501.529 958.309, 507.667 956.833, 521.009 949.576 C 527.659 945.959, 533.267 943, 533.471 943 C 533.675 943, 549.065 934.748, 567.671 924.663 C 586.277 914.578, 605.550 904.158, 610.500 901.509 C 615.450 898.859, 621.975 895.353, 625 893.718 C 628.025 892.084, 632.975 889.443, 636 887.849 C 639.025 886.256, 642.175 884.540, 643 884.036 C 643.825 883.533, 666.100 871.453, 692.500 857.192 C 718.900 842.932, 743.650 829.563, 747.500 827.483 C 755.899 822.946, 764.548 818.329, 776 812.268 C 780.675 809.794, 798.563 800.127, 815.752 790.786 C 841.446 776.823, 847.715 772.995, 851.002 769.260 L 855 764.718 855 731.764 C 855 695.567, 854.823 694.412, 848.886 691.953 C 845.814 690.680, 841.171 692.791, 811 709.179 C 802.475 713.810, 793.475 718.591, 791 719.805 C 788.525 721.019, 785.825 722.433, 785 722.947 C 782.190 724.699, 746.019 744, 745.545 744 C 745.285 744, 737.714 748.009, 728.721 752.909 C 719.728 757.809, 710.825 762.525, 708.935 763.389 C 707.046 764.253, 704.825 765.393, 704 765.923 C 702.084 767.153, 678.530 779.698, 670 784.031 C 666.425 785.847, 658.775 789.900, 653 793.038 C 642.917 798.516, 637.338 801.486, 614.772 813.385 C 609.122 816.364, 597.800 822.446, 589.612 826.901 C 581.423 831.355, 574.535 835, 574.305 835 C 574.075 835, 566.825 838.789, 558.194 843.420 C 498.430 875.486, 502.303 874.118, 489.469 867.706 C 481.125 863.537, 470.849 858.122, 454 849.016 C 447.125 845.300, 439.025 840.997, 436 839.454 C 432.975 837.910, 422.348 832.238, 412.383 826.850 C 402.419 821.461, 393.194 816.554, 391.883 815.946 C 390.573 815.337, 386.800 813.302, 383.500 811.423 C 380.200 809.543, 375.700 807.131, 373.500 806.062 C 371.300 804.993, 365.225 801.787, 360 798.937 C 354.775 796.087, 342.175 789.365, 332 784.001 C 321.825 778.636, 309.450 772.091, 304.500 769.455 C 299.550 766.820, 292.125 762.895, 288 760.734 C 279.933 756.508, 256.783 744.163, 235 732.471 C 227.575 728.486, 213.625 721.189, 204 716.256 C 194.375 711.323, 179.450 703.622, 170.833 699.143 C 162.216 694.664, 154.029 691, 152.639 691 C 151.249 691, 148.849 692.087, 147.306 693.415" stroke="none" fill="#1e68d8" fill-rule="evenodd"/></svg>