<svg xmlns="http://www.w3.org/2000/svg" xmlns:xlink="http://www.w3.org/1999/xlink" width="800" zoomAndPan="magnify" viewBox="0 0 600 127.500001" height="170" preserveAspectRatio="xMidYMid meet" version="1.2"><defs/><g id="80f2126c62"><g style="fill:#ffffff;fill-opacity:1;"><g transform="translate(105.178881, 97.831135)"><path style="stroke:none" d="M 5.359375 -73.625 L 26.6875 -73.625 C 36.914062 -73.625 45.660156 -70.128906 52.921875 -63.140625 C 60.179688 -56.148438 63.8125 -47.390625 63.8125 -36.859375 C 63.8125 -26.265625 60.195312 -17.472656 52.96875 -10.484375 C 45.738281 -3.492188 36.976562 0 26.6875 0 L 5.359375 0 Z M 22.140625 -15 L 24.71875 -15 C 30.851562 -15 35.867188 -17.066406 39.765625 -21.203125 C 43.660156 -25.335938 45.640625 -30.523438 45.703125 -36.765625 C 45.703125 -43.015625 43.75 -48.222656 39.84375 -52.390625 C 35.945312 -56.554688 30.90625 -58.640625 24.71875 -58.640625 L 22.140625 -58.640625 Z M 22.140625 -15 "/></g></g><g style="fill:#ffffff;fill-opacity:1;"><g transform="translate(174.881179, 97.831135)"><path style="stroke:none" d="M 9.671875 -5.4375 C 4.585938 -9.96875 2.046875 -15.769531 2.046875 -22.84375 C 2.046875 -29.925781 4.691406 -35.742188 9.984375 -40.296875 C 15.285156 -44.847656 21.832031 -47.125 29.625 -47.125 C 37.300781 -47.125 43.769531 -44.832031 49.03125 -40.25 C 54.300781 -35.664062 56.9375 -29.863281 56.9375 -22.84375 C 56.9375 -15.820312 54.363281 -10.035156 49.21875 -5.484375 C 44.070312 -0.929688 37.539062 1.34375 29.625 1.34375 C 21.414062 1.34375 14.765625 -0.914062 9.671875 -5.4375 Z M 21.90625 -30.609375 C 19.851562 -28.585938 18.828125 -26 18.828125 -22.84375 C 18.828125 -19.695312 19.804688 -17.125 21.765625 -15.125 C 23.734375 -13.132812 26.328125 -12.140625 29.546875 -12.140625 C 32.640625 -12.140625 35.179688 -13.148438 37.171875 -15.171875 C 39.160156 -17.191406 40.15625 -19.75 40.15625 -22.84375 C 40.15625 -26 39.128906 -28.585938 37.078125 -30.609375 C 35.023438 -32.628906 32.515625 -33.640625 29.546875 -33.640625 C 26.503906 -33.640625 23.957031 -32.628906 21.90625 -30.609375 Z M 21.90625 -30.609375 "/></g></g><g style="fill:#ffffff;fill-opacity:1;"><g transform="translate(237.711439, 97.831135)"><path style="stroke:none" d="M 29.71875 -34.1875 C 26.738281 -34.1875 24.175781 -33.082031 22.03125 -30.875 C 19.894531 -28.675781 18.828125 -26.03125 18.828125 -22.9375 C 18.828125 -19.78125 19.894531 -17.101562 22.03125 -14.90625 C 24.175781 -12.707031 26.738281 -11.609375 29.71875 -11.609375 C 31.144531 -11.609375 32.5 -11.785156 33.78125 -12.140625 C 35.0625 -12.492188 36 -12.847656 36.59375 -13.203125 L 37.390625 -13.75 L 42.75 -2.765625 C 42.332031 -2.472656 41.75 -2.101562 41 -1.65625 C 40.257812 -1.207031 38.566406 -0.597656 35.921875 0.171875 C 33.273438 0.953125 30.4375 1.34375 27.40625 1.34375 C 20.675781 1.34375 14.765625 -1.019531 9.671875 -5.75 C 4.585938 -10.488281 2.046875 -16.160156 2.046875 -22.765625 C 2.046875 -29.421875 4.585938 -35.144531 9.671875 -39.9375 C 14.765625 -44.726562 20.675781 -47.125 27.40625 -47.125 C 30.4375 -47.125 33.226562 -46.765625 35.78125 -46.046875 C 38.34375 -45.335938 40.160156 -44.625 41.234375 -43.90625 L 42.75 -42.84375 L 37.390625 -32.046875 C 35.429688 -33.472656 32.875 -34.1875 29.71875 -34.1875 Z M 29.71875 -34.1875 "/></g></g><g style="fill:#ffffff;fill-opacity:1;"><g transform="translate(285.369656, 97.831135)"><path style="stroke:none" d="M 37.390625 -73.625 L 37.390625 -20.796875 C 37.390625 -13.597656 35.410156 -8.109375 31.453125 -4.328125 C 27.503906 -0.546875 21.835938 1.34375 14.453125 1.34375 C 12.492188 1.34375 10.5625 1.101562 8.65625 0.625 C 6.75 0.144531 5.140625 -0.429688 3.828125 -1.109375 C 2.523438 -1.796875 1.351562 -2.492188 0.3125 -3.203125 C -0.726562 -3.921875 -1.488281 -4.519531 -1.96875 -5 L -2.765625 -5.71875 L 2.59375 -19.71875 C 6.101562 -16.382812 9.285156 -14.71875 12.140625 -14.71875 C 14.691406 -14.71875 16.738281 -15.566406 18.28125 -17.265625 C 19.832031 -18.960938 20.609375 -21.566406 20.609375 -25.078125 L 20.609375 -73.625 Z M 37.390625 -73.625 "/></g></g><g style="fill:#ffffff;fill-opacity:1;"><g transform="translate(331.064449, 97.831135)"><path style="stroke:none" d="M 8.46875 -5.65625 C 4.1875 -10.332031 2.046875 -16.0625 2.046875 -22.84375 C 2.046875 -29.625 4.1875 -35.363281 8.46875 -40.0625 C 12.757812 -44.769531 18.207031 -47.125 24.8125 -47.125 C 30.882812 -47.125 35.882812 -45.21875 39.8125 -41.40625 L 39.8125 -45.78125 L 55.609375 -45.78125 L 55.609375 0 L 39.984375 0 L 39.984375 -5.171875 L 39.8125 -5.171875 C 35.882812 -0.828125 30.882812 1.34375 24.8125 1.34375 C 18.207031 1.34375 12.757812 -0.988281 8.46875 -5.65625 Z M 21.90625 -30.609375 C 19.851562 -28.585938 18.828125 -26 18.828125 -22.84375 C 18.828125 -19.695312 19.804688 -17.125 21.765625 -15.125 C 23.734375 -13.132812 26.328125 -12.140625 29.546875 -12.140625 C 32.640625 -12.140625 35.179688 -13.148438 37.171875 -15.171875 C 39.160156 -17.191406 40.15625 -19.75 40.15625 -22.84375 C 40.15625 -26 39.128906 -28.585938 37.078125 -30.609375 C 35.023438 -32.628906 32.515625 -33.640625 29.546875 -33.640625 C 26.503906 -33.640625 23.957031 -32.628906 21.90625 -30.609375 Z M 21.90625 -30.609375 "/></g></g><g style="fill:#ffffff;fill-opacity:1;"><g transform="translate(395.858121, 97.831135)"><path style="stroke:none" d="M 29.71875 -34.1875 C 26.738281 -34.1875 24.175781 -33.082031 22.03125 -30.875 C 19.894531 -28.675781 18.828125 -26.03125 18.828125 -22.9375 C 18.828125 -19.78125 19.894531 -17.101562 22.03125 -14.90625 C 24.175781 -12.707031 26.738281 -11.609375 29.71875 -11.609375 C 31.144531 -11.609375 32.5 -11.785156 33.78125 -12.140625 C 35.0625 -12.492188 36 -12.847656 36.59375 -13.203125 L 37.390625 -13.75 L 42.75 -2.765625 C 42.332031 -2.472656 41.75 -2.101562 41 -1.65625 C 40.257812 -1.207031 38.566406 -0.597656 35.921875 0.171875 C 33.273438 0.953125 30.4375 1.34375 27.40625 1.34375 C 20.675781 1.34375 14.765625 -1.019531 9.671875 -5.75 C 4.585938 -10.488281 2.046875 -16.160156 2.046875 -22.765625 C 2.046875 -29.421875 4.585938 -35.144531 9.671875 -39.9375 C 14.765625 -44.726562 20.675781 -47.125 27.40625 -47.125 C 30.4375 -47.125 33.226562 -46.765625 35.78125 -46.046875 C 38.34375 -45.335938 40.160156 -44.625 41.234375 -43.90625 L 42.75 -42.84375 L 37.390625 -32.046875 C 35.429688 -33.472656 32.875 -34.1875 29.71875 -34.1875 Z M 29.71875 -34.1875 "/></g></g><g style="fill:#ffffff;fill-opacity:1;"><g transform="translate(443.51635, 97.831135)"><path style="stroke:none" d="M 57.65625 -45.78125 L 35.875 -23.921875 L 59.796875 0 L 39.453125 0 L 21.15625 -18.296875 L 21.15625 0 L 5.359375 0 L 5.359375 -76.75 L 21.15625 -76.75 L 21.15625 -29.8125 L 37.125 -45.78125 Z M 57.65625 -45.78125 "/></g></g><g style="fill:#ffffff;fill-opacity:1;"><g transform="translate(505.007895, 97.831135)"><path style="stroke:none" d="M 51.671875 -20.703125 L 18.46875 -20.703125 C 18.46875 -17.492188 19.507812 -15.113281 21.59375 -13.5625 C 23.675781 -12.019531 25.9375 -11.25 28.375 -11.25 C 30.9375 -11.25 32.960938 -11.585938 34.453125 -12.265625 C 35.941406 -12.953125 37.632812 -14.304688 39.53125 -16.328125 L 50.96875 -10.625 C 46.207031 -2.644531 38.289062 1.34375 27.21875 1.34375 C 20.320312 1.34375 14.398438 -1.019531 9.453125 -5.75 C 4.515625 -10.488281 2.046875 -16.1875 2.046875 -22.84375 C 2.046875 -29.507812 4.515625 -35.222656 9.453125 -39.984375 C 14.398438 -44.742188 20.320312 -47.125 27.21875 -47.125 C 34.476562 -47.125 40.382812 -45.023438 44.9375 -40.828125 C 49.488281 -36.640625 51.765625 -30.644531 51.765625 -22.84375 C 51.765625 -21.769531 51.734375 -21.054688 51.671875 -20.703125 Z M 18.921875 -29.453125 L 36.328125 -29.453125 C 35.972656 -31.828125 35.035156 -33.65625 33.515625 -34.9375 C 31.992188 -36.21875 30.046875 -36.859375 27.671875 -36.859375 C 25.046875 -36.859375 22.957031 -36.171875 21.40625 -34.796875 C 19.863281 -33.429688 19.035156 -31.648438 18.921875 -29.453125 Z M 18.921875 -29.453125 "/></g></g><g style="fill:#ffffff;fill-opacity:1;"><g transform="translate(562.661788, 97.831135)"><path style="stroke:none" d="M 8.03125 -45.78125 L 8.03125 -62.828125 L 23.828125 -62.828125 L 23.828125 -45.78125 L 33.46875 -45.78125 L 33.46875 -33.734375 L 23.828125 -33.734375 L 23.828125 -19.1875 C 23.828125 -14.96875 25.019531 -12.859375 27.40625 -12.859375 C 28 -12.859375 28.617188 -12.972656 29.265625 -13.203125 C 29.921875 -13.441406 30.429688 -13.679688 30.796875 -13.921875 L 31.328125 -14.28125 L 35.25 -1.515625 C 31.863281 0.390625 28 1.34375 23.65625 1.34375 C 20.675781 1.34375 18.113281 0.820312 15.96875 -0.21875 C 13.832031 -1.257812 12.210938 -2.65625 11.109375 -4.40625 C 10.003906 -6.164062 9.210938 -8.015625 8.734375 -9.953125 C 8.265625 -11.890625 8.03125 -13.957031 8.03125 -16.15625 L 8.03125 -33.734375 L 1.421875 -33.734375 L 1.421875 -45.78125 Z M 8.03125 -45.78125 "/></g></g><path style=" stroke:none;fill-rule:nonzero;fill:#ffffff;fill-opacity:1;" d="M 23.539062 30.234375 C 13.695312 39.128906 5.597656 46.65625 5.597656 46.960938 C 5.597656 47.378906 6.320312 47.53125 8.941406 47.605469 L 12.25 47.71875 L 12.363281 55.054688 L 12.441406 62.355469 L 11.414062 62.773438 C 7.765625 64.21875 6.359375 65.054688 6.128906 65.96875 C 6.015625 66.5 5.976562 67.183594 6.128906 67.488281 C 6.433594 68.324219 41.105469 85.542969 42.511719 85.542969 C 43.839844 85.542969 77.257812 68.816406 78.320312 67.601562 C 79.195312 66.574219 79.15625 66.269531 77.863281 65.015625 C 77.179688 64.332031 75.886719 63.648438 74.441406 63.269531 L 72.125 62.621094 L 72.199219 55.171875 L 72.3125 47.71875 L 75.660156 47.605469 C 78.585938 47.53125 79.003906 47.414062 78.890625 46.84375 C 78.699219 45.855469 43.195312 14.078125 42.28125 14.078125 C 41.789062 14.078125 34.792969 20.121094 23.539062 30.234375 Z M 51.597656 36.277344 C 55.664062 39.886719 59.578125 43.347656 60.261719 43.917969 L 61.480469 44.945312 L 61.402344 54.449219 L 61.289062 63.914062 L 51.863281 68.742188 L 42.433594 73.53125 L 32.96875 68.816406 L 23.464844 64.066406 L 23.464844 44.679688 L 30.34375 38.597656 C 34.148438 35.25 38.367188 31.523438 39.734375 30.347656 L 42.246094 28.21875 L 43.195312 28.941406 C 43.726562 29.359375 47.492188 32.664062 51.597656 36.277344 Z M 51.597656 36.277344 "/><path style=" stroke:none;fill-rule:nonzero;fill:#ffffff;fill-opacity:1;" d="M 33.730469 46.960938 L 33.730469 50.570312 L 41.332031 50.570312 L 41.332031 43.347656 L 33.730469 43.347656 Z M 33.730469 46.960938 "/><path style=" stroke:none;fill-rule:nonzero;fill:#ffffff;fill-opacity:1;" d="M 43.613281 46.960938 L 43.613281 50.570312 L 50.835938 50.570312 L 50.835938 43.347656 L 43.613281 43.347656 Z M 43.613281 46.960938 "/><path style=" stroke:none;fill-rule:nonzero;fill:#ffffff;fill-opacity:1;" d="M 33.730469 56.464844 L 33.730469 60.113281 L 37.453125 60 L 41.140625 59.882812 L 41.253906 56.347656 L 41.371094 52.851562 L 33.730469 52.851562 Z M 33.730469 56.464844 "/><path style=" stroke:none;fill-rule:nonzero;fill:#ffffff;fill-opacity:1;" d="M 43.613281 56.464844 L 43.613281 60.074219 L 50.835938 60.074219 L 50.835938 52.851562 L 43.613281 52.851562 Z M 43.613281 56.464844 "/><path style=" stroke:none;fill-rule:nonzero;fill:#ffffff;fill-opacity:1;" d="M 6.054688 73.457031 C 5.789062 73.722656 5.597656 75.128906 5.597656 77.027344 C 5.597656 79.765625 5.710938 80.296875 6.472656 81.097656 C 6.929688 81.628906 10.234375 83.53125 13.769531 85.355469 C 21.183594 89.15625 25.898438 91.628906 35.136719 96.53125 C 38.746094 98.433594 41.976562 99.992188 42.320312 99.992188 C 43.195312 99.992188 77.902344 81.820312 78.511719 81.058594 C 79.195312 80.183594 79.117188 73.988281 78.433594 73.417969 C 78.015625 73.039062 74.367188 74.75 60.378906 81.742188 C 50.722656 86.53125 42.585938 90.488281 42.246094 90.488281 C 41.902344 90.488281 33.84375 86.570312 24.339844 81.742188 C 14.875 76.914062 6.964844 73 6.8125 73 C 6.664062 73 6.320312 73.191406 6.054688 73.457031 Z M 6.054688 73.457031 "/><path style=" stroke:none;fill-rule:nonzero;fill:#ffffff;fill-opacity:1;" d="M 5.976562 90.21875 C 5.976562 93.527344 6.09375 94.25 6.664062 94.746094 C 7.421875 95.429688 37.53125 111.851562 40.535156 113.21875 L 42.585938 114.167969 L 45.476562 112.648438 C 54.902344 107.785156 77.40625 95.238281 78.128906 94.441406 C 78.851562 93.605469 78.964844 93.070312 78.964844 90.070312 C 78.964844 87.558594 78.816406 86.609375 78.472656 86.457031 C 78.167969 86.34375 70.148438 90.371094 60.644531 95.429688 C 50.609375 100.710938 42.890625 104.550781 42.320312 104.550781 C 41.75 104.550781 40.230469 103.980469 38.9375 103.257812 C 37.644531 102.574219 32.890625 100.066406 28.40625 97.710938 C 23.921875 95.351562 19.054688 92.765625 17.574219 92.007812 C 16.128906 91.246094 13.085938 89.613281 10.882812 88.433594 C 8.675781 87.253906 6.664062 86.304688 6.394531 86.304688 C 6.128906 86.304688 5.976562 87.519531 5.976562 90.21875 Z M 5.976562 90.21875 "/></g></svg>